<mxfile host="app.diagrams.net" modified="2021-04-24T06:24:28.578Z" agent="5.0 (Windows NT 10.0; WOW64) AppleWebKit/537.36 (KHTML, like Gecko) Chrome/70.0.3538.25 Safari/537.36 Core/1.70.3861.400 QQBrowser/10.7.4313.400" etag="oaYdbolvMN4aNueCRsxr" version="14.6.1" type="github">
  <diagram id="rdA4caQz7iyz7Uherc2U" name="Page-1">
    <mxGraphModel dx="998" dy="556" grid="0" gridSize="10" guides="1" tooltips="1" connect="1" arrows="1" fold="1" page="1" pageScale="1" pageWidth="827" pageHeight="1169" math="0" shadow="0">
      <root>
        <mxCell id="0" />
        <mxCell id="1" parent="0" />
        <mxCell id="FSJBNQoLMnglbI8anA3b-2" value="&lt;p class=&quot;MsoNormal&quot;&gt;&lt;span style=&quot;font-size: 12.0000pt&quot;&gt;&lt;font face=&quot;宋体&quot;&gt;基于安卓系统的慢病的健康食谱推荐&lt;/font&gt;&lt;/span&gt;&lt;/p&gt;" style="rounded=0;whiteSpace=wrap;html=1;" parent="1" vertex="1">
          <mxGeometry x="260" y="30" width="270" height="40" as="geometry" />
        </mxCell>
        <mxCell id="FSJBNQoLMnglbI8anA3b-6" value="服务端" style="rounded=0;whiteSpace=wrap;html=1;" parent="1" vertex="1">
          <mxGeometry x="162" y="116" width="70" height="40" as="geometry" />
        </mxCell>
        <mxCell id="FSJBNQoLMnglbI8anA3b-8" value="客户端" style="rounded=0;whiteSpace=wrap;html=1;" parent="1" vertex="1">
          <mxGeometry x="530" y="116" width="70" height="40" as="geometry" />
        </mxCell>
        <mxCell id="M044ovHINMiQ8--4kUMg-11" value="用&lt;br&gt;户&lt;br&gt;管&lt;br&gt;理" style="rounded=0;whiteSpace=wrap;html=1;rotation=0;textDirection=ltr;direction=south;" parent="1" vertex="1">
          <mxGeometry x="264" y="196" width="40" height="80" as="geometry" />
        </mxCell>
        <mxCell id="M044ovHINMiQ8--4kUMg-12" value="菜&lt;br&gt;谱&lt;br&gt;管&lt;br&gt;理" style="rounded=0;whiteSpace=wrap;html=1;rotation=0;textDirection=ltr;direction=south;" parent="1" vertex="1">
          <mxGeometry x="43" y="311" width="40" height="80" as="geometry" />
        </mxCell>
        <mxCell id="M044ovHINMiQ8--4kUMg-13" value="文&lt;br&gt;章&lt;br&gt;管&lt;br&gt;理" style="rounded=0;whiteSpace=wrap;html=1;rotation=0;textDirection=ltr;direction=south;" parent="1" vertex="1">
          <mxGeometry x="92" y="311" width="40" height="80" as="geometry" />
        </mxCell>
        <mxCell id="M044ovHINMiQ8--4kUMg-16" value="数&lt;br&gt;据&lt;br&gt;管&lt;br&gt;理" style="rounded=0;whiteSpace=wrap;html=1;rotation=0;textDirection=ltr;direction=south;" parent="1" vertex="1">
          <mxGeometry x="92" y="189" width="40" height="80" as="geometry" />
        </mxCell>
        <mxCell id="M044ovHINMiQ8--4kUMg-17" value="慢&lt;br&gt;病&lt;br&gt;管&lt;br&gt;理" style="rounded=0;whiteSpace=wrap;html=1;rotation=0;textDirection=ltr;direction=south;" parent="1" vertex="1">
          <mxGeometry x="141" y="311" width="40" height="80" as="geometry" />
        </mxCell>
        <mxCell id="M044ovHINMiQ8--4kUMg-19" value="用&lt;br&gt;户&lt;br&gt;管&lt;br&gt;理" style="rounded=0;whiteSpace=wrap;html=1;rotation=0;textDirection=ltr;direction=south;" parent="1" vertex="1">
          <mxGeometry x="264" y="311" width="40" height="80" as="geometry" />
        </mxCell>
        <mxCell id="M044ovHINMiQ8--4kUMg-20" value="食&lt;br&gt;谱" style="rounded=0;whiteSpace=wrap;html=1;rotation=0;textDirection=ltr;direction=south;" parent="1" vertex="1">
          <mxGeometry x="381" y="201" width="40" height="80" as="geometry" />
        </mxCell>
        <mxCell id="M044ovHINMiQ8--4kUMg-21" value="论&lt;br&gt;坛" style="rounded=0;whiteSpace=wrap;html=1;rotation=0;textDirection=ltr;direction=south;" parent="1" vertex="1">
          <mxGeometry x="500" y="196" width="40" height="80" as="geometry" />
        </mxCell>
        <mxCell id="M044ovHINMiQ8--4kUMg-22" value="文&lt;br&gt;章" style="rounded=0;whiteSpace=wrap;html=1;rotation=0;textDirection=ltr;direction=south;" parent="1" vertex="1">
          <mxGeometry x="595" y="195" width="40" height="80" as="geometry" />
        </mxCell>
        <mxCell id="M044ovHINMiQ8--4kUMg-23" value="我&lt;br&gt;的" style="rounded=0;whiteSpace=wrap;html=1;rotation=0;textDirection=ltr;direction=south;" parent="1" vertex="1">
          <mxGeometry x="699" y="195" width="40" height="80" as="geometry" />
        </mxCell>
        <mxCell id="M044ovHINMiQ8--4kUMg-24" value="发&lt;br&gt;布&lt;br&gt;论&lt;br&gt;坛" style="rounded=0;whiteSpace=wrap;html=1;rotation=0;textDirection=ltr;direction=south;" parent="1" vertex="1">
          <mxGeometry x="476" y="312" width="40" height="80" as="geometry" />
        </mxCell>
        <mxCell id="M044ovHINMiQ8--4kUMg-25" value="参&lt;br&gt;与&lt;br&gt;论&lt;br&gt;坛" style="rounded=0;whiteSpace=wrap;html=1;rotation=0;textDirection=ltr;direction=south;" parent="1" vertex="1">
          <mxGeometry x="521" y="311" width="40" height="80" as="geometry" />
        </mxCell>
        <mxCell id="M044ovHINMiQ8--4kUMg-26" value="搜&lt;br&gt;索&lt;br&gt;文&lt;br&gt;章" style="rounded=0;whiteSpace=wrap;html=1;rotation=0;textDirection=ltr;direction=south;" parent="1" vertex="1">
          <mxGeometry x="570" y="311" width="40" height="80" as="geometry" />
        </mxCell>
        <mxCell id="M044ovHINMiQ8--4kUMg-27" value="浏&lt;br&gt;览&lt;br&gt;文&lt;br&gt;章" style="rounded=0;whiteSpace=wrap;html=1;rotation=0;textDirection=ltr;direction=south;" parent="1" vertex="1">
          <mxGeometry x="620" y="311" width="40" height="80" as="geometry" />
        </mxCell>
        <mxCell id="M044ovHINMiQ8--4kUMg-28" value="修&lt;br&gt;改&lt;br&gt;信&lt;br&gt;息" style="rounded=0;whiteSpace=wrap;html=1;rotation=0;textDirection=ltr;direction=south;" parent="1" vertex="1">
          <mxGeometry x="673" y="311" width="40" height="80" as="geometry" />
        </mxCell>
        <mxCell id="M044ovHINMiQ8--4kUMg-29" value="动&lt;br&gt;态&lt;br&gt;管&lt;br&gt;理" style="rounded=0;whiteSpace=wrap;html=1;rotation=0;textDirection=ltr;direction=south;" parent="1" vertex="1">
          <mxGeometry x="723" y="311" width="40" height="80" as="geometry" />
        </mxCell>
        <mxCell id="M044ovHINMiQ8--4kUMg-36" value="" style="endArrow=none;html=1;strokeColor=#000000;entryX=0.5;entryY=1;entryDx=0;entryDy=0;exitX=0.5;exitY=0;exitDx=0;exitDy=0;edgeStyle=orthogonalEdgeStyle;rounded=0;" parent="1" source="FSJBNQoLMnglbI8anA3b-8" target="FSJBNQoLMnglbI8anA3b-2" edge="1">
          <mxGeometry width="50" height="50" relative="1" as="geometry">
            <mxPoint x="356" y="332" as="sourcePoint" />
            <mxPoint x="393" y="156" as="targetPoint" />
          </mxGeometry>
        </mxCell>
        <mxCell id="M044ovHINMiQ8--4kUMg-37" value="" style="endArrow=none;html=1;strokeColor=#000000;entryX=0.5;entryY=1;entryDx=0;entryDy=0;exitX=0.5;exitY=0;exitDx=0;exitDy=0;edgeStyle=orthogonalEdgeStyle;rounded=0;" parent="1" source="FSJBNQoLMnglbI8anA3b-6" target="FSJBNQoLMnglbI8anA3b-2" edge="1">
          <mxGeometry width="50" height="50" relative="1" as="geometry">
            <mxPoint x="356" y="332" as="sourcePoint" />
            <mxPoint x="436" y="78" as="targetPoint" />
          </mxGeometry>
        </mxCell>
        <mxCell id="M044ovHINMiQ8--4kUMg-38" value="搜&lt;br&gt;索&lt;br&gt;食&lt;br&gt;谱" style="rounded=0;whiteSpace=wrap;html=1;rotation=0;textDirection=ltr;direction=south;" parent="1" vertex="1">
          <mxGeometry x="328" y="312" width="40" height="80" as="geometry" />
        </mxCell>
        <mxCell id="M044ovHINMiQ8--4kUMg-45" value="" style="endArrow=none;html=1;strokeColor=#000000;entryX=0.5;entryY=1;entryDx=0;entryDy=0;exitX=0;exitY=0.5;exitDx=0;exitDy=0;edgeStyle=orthogonalEdgeStyle;rounded=0;" parent="1" edge="1">
          <mxGeometry width="50" height="50" relative="1" as="geometry">
            <mxPoint x="112" y="187" as="sourcePoint" />
            <mxPoint x="197" y="154" as="targetPoint" />
            <Array as="points">
              <mxPoint x="112" y="177" />
              <mxPoint x="197" y="177" />
            </Array>
          </mxGeometry>
        </mxCell>
        <mxCell id="M044ovHINMiQ8--4kUMg-48" value="" style="endArrow=none;html=1;strokeColor=#000000;entryX=0.5;entryY=1;entryDx=0;entryDy=0;exitX=0;exitY=0.5;exitDx=0;exitDy=0;edgeStyle=orthogonalEdgeStyle;rounded=0;" parent="1" source="M044ovHINMiQ8--4kUMg-11" target="FSJBNQoLMnglbI8anA3b-6" edge="1">
          <mxGeometry width="50" height="50" relative="1" as="geometry">
            <mxPoint x="356" y="332" as="sourcePoint" />
            <mxPoint x="406" y="282" as="targetPoint" />
            <Array as="points">
              <mxPoint x="284" y="177" />
              <mxPoint x="197" y="177" />
            </Array>
          </mxGeometry>
        </mxCell>
        <mxCell id="M044ovHINMiQ8--4kUMg-49" value="" style="endArrow=none;html=1;strokeColor=#000000;entryX=1;entryY=0.5;entryDx=0;entryDy=0;" parent="1" source="M044ovHINMiQ8--4kUMg-19" target="M044ovHINMiQ8--4kUMg-11" edge="1">
          <mxGeometry width="50" height="50" relative="1" as="geometry">
            <mxPoint x="356" y="332" as="sourcePoint" />
            <mxPoint x="406" y="282" as="targetPoint" />
          </mxGeometry>
        </mxCell>
        <mxCell id="M044ovHINMiQ8--4kUMg-51" value="" style="endArrow=none;html=1;strokeColor=#000000;exitX=1;exitY=0.5;exitDx=0;exitDy=0;entryX=0;entryY=0.5;entryDx=0;entryDy=0;edgeStyle=orthogonalEdgeStyle;rounded=0;" parent="1" source="M044ovHINMiQ8--4kUMg-16" target="M044ovHINMiQ8--4kUMg-17" edge="1">
          <mxGeometry width="50" height="50" relative="1" as="geometry">
            <mxPoint x="356" y="332" as="sourcePoint" />
            <mxPoint x="406" y="282" as="targetPoint" />
          </mxGeometry>
        </mxCell>
        <mxCell id="M044ovHINMiQ8--4kUMg-52" value="" style="endArrow=none;html=1;strokeColor=#000000;exitX=1;exitY=0.5;exitDx=0;exitDy=0;entryX=0;entryY=0.5;entryDx=0;entryDy=0;edgeStyle=orthogonalEdgeStyle;rounded=0;" parent="1" source="M044ovHINMiQ8--4kUMg-16" target="M044ovHINMiQ8--4kUMg-13" edge="1">
          <mxGeometry width="50" height="50" relative="1" as="geometry">
            <mxPoint x="356" y="332" as="sourcePoint" />
            <mxPoint x="406" y="282" as="targetPoint" />
          </mxGeometry>
        </mxCell>
        <mxCell id="M044ovHINMiQ8--4kUMg-55" value="" style="endArrow=none;html=1;strokeColor=#000000;exitX=0;exitY=0.5;exitDx=0;exitDy=0;entryX=1;entryY=0.5;entryDx=0;entryDy=0;edgeStyle=orthogonalEdgeStyle;rounded=0;" parent="1" source="M044ovHINMiQ8--4kUMg-12" target="M044ovHINMiQ8--4kUMg-16" edge="1">
          <mxGeometry width="50" height="50" relative="1" as="geometry">
            <mxPoint x="356" y="332" as="sourcePoint" />
            <mxPoint x="237" y="282" as="targetPoint" />
          </mxGeometry>
        </mxCell>
        <mxCell id="M044ovHINMiQ8--4kUMg-57" value="" style="endArrow=none;html=1;strokeColor=#000000;entryX=0.5;entryY=1;entryDx=0;entryDy=0;exitX=0;exitY=0.5;exitDx=0;exitDy=0;edgeStyle=orthogonalEdgeStyle;rounded=0;" parent="1" edge="1">
          <mxGeometry width="50" height="50" relative="1" as="geometry">
            <mxPoint x="392" y="200" as="sourcePoint" />
            <mxPoint x="565" y="155" as="targetPoint" />
            <Array as="points">
              <mxPoint x="392" y="176" />
              <mxPoint x="565" y="176" />
            </Array>
          </mxGeometry>
        </mxCell>
        <mxCell id="M044ovHINMiQ8--4kUMg-59" value="" style="endArrow=none;html=1;strokeColor=#000000;exitX=0.5;exitY=1;exitDx=0;exitDy=0;entryX=0;entryY=0.5;entryDx=0;entryDy=0;edgeStyle=orthogonalEdgeStyle;rounded=0;" parent="1" source="FSJBNQoLMnglbI8anA3b-8" target="M044ovHINMiQ8--4kUMg-21" edge="1">
          <mxGeometry width="50" height="50" relative="1" as="geometry">
            <mxPoint x="356" y="332" as="sourcePoint" />
            <mxPoint x="406" y="282" as="targetPoint" />
          </mxGeometry>
        </mxCell>
        <mxCell id="M044ovHINMiQ8--4kUMg-61" value="" style="endArrow=none;html=1;strokeColor=#000000;entryX=0.5;entryY=1;entryDx=0;entryDy=0;exitX=0;exitY=0.5;exitDx=0;exitDy=0;edgeStyle=orthogonalEdgeStyle;rounded=0;" parent="1" source="M044ovHINMiQ8--4kUMg-22" target="FSJBNQoLMnglbI8anA3b-8" edge="1">
          <mxGeometry width="50" height="50" relative="1" as="geometry">
            <mxPoint x="356" y="332" as="sourcePoint" />
            <mxPoint x="406" y="282" as="targetPoint" />
          </mxGeometry>
        </mxCell>
        <mxCell id="M044ovHINMiQ8--4kUMg-62" value="" style="endArrow=none;html=1;strokeColor=#000000;exitX=0.5;exitY=1;exitDx=0;exitDy=0;entryX=0;entryY=0.5;entryDx=0;entryDy=0;edgeStyle=orthogonalEdgeStyle;rounded=0;" parent="1" source="FSJBNQoLMnglbI8anA3b-8" target="M044ovHINMiQ8--4kUMg-23" edge="1">
          <mxGeometry width="50" height="50" relative="1" as="geometry">
            <mxPoint x="356" y="332" as="sourcePoint" />
            <mxPoint x="406" y="282" as="targetPoint" />
          </mxGeometry>
        </mxCell>
        <mxCell id="M044ovHINMiQ8--4kUMg-63" value="" style="endArrow=none;html=1;strokeColor=#000000;entryX=1;entryY=0.5;entryDx=0;entryDy=0;exitX=0;exitY=0.5;exitDx=0;exitDy=0;rounded=0;edgeStyle=orthogonalEdgeStyle;" parent="1" source="M044ovHINMiQ8--4kUMg-38" target="M044ovHINMiQ8--4kUMg-20" edge="1">
          <mxGeometry width="50" height="50" relative="1" as="geometry">
            <mxPoint x="387" y="332" as="sourcePoint" />
            <mxPoint x="437" y="282" as="targetPoint" />
          </mxGeometry>
        </mxCell>
        <mxCell id="M044ovHINMiQ8--4kUMg-64" value="" style="endArrow=none;html=1;strokeColor=#000000;exitX=1;exitY=0.5;exitDx=0;exitDy=0;entryX=0;entryY=0.5;entryDx=0;entryDy=0;edgeStyle=orthogonalEdgeStyle;rounded=0;" parent="1" source="M044ovHINMiQ8--4kUMg-21" target="M044ovHINMiQ8--4kUMg-24" edge="1">
          <mxGeometry width="50" height="50" relative="1" as="geometry">
            <mxPoint x="387" y="332" as="sourcePoint" />
            <mxPoint x="437" y="282" as="targetPoint" />
          </mxGeometry>
        </mxCell>
        <mxCell id="M044ovHINMiQ8--4kUMg-65" value="" style="endArrow=none;html=1;strokeColor=#000000;exitX=0;exitY=0.5;exitDx=0;exitDy=0;entryX=1;entryY=0.5;entryDx=0;entryDy=0;edgeStyle=orthogonalEdgeStyle;rounded=0;" parent="1" source="M044ovHINMiQ8--4kUMg-25" target="M044ovHINMiQ8--4kUMg-21" edge="1">
          <mxGeometry width="50" height="50" relative="1" as="geometry">
            <mxPoint x="387" y="332" as="sourcePoint" />
            <mxPoint x="437" y="282" as="targetPoint" />
          </mxGeometry>
        </mxCell>
        <mxCell id="M044ovHINMiQ8--4kUMg-66" value="" style="endArrow=none;html=1;strokeColor=#000000;exitX=1;exitY=0.5;exitDx=0;exitDy=0;entryX=0;entryY=0.5;entryDx=0;entryDy=0;edgeStyle=orthogonalEdgeStyle;rounded=0;" parent="1" source="M044ovHINMiQ8--4kUMg-22" target="M044ovHINMiQ8--4kUMg-26" edge="1">
          <mxGeometry width="50" height="50" relative="1" as="geometry">
            <mxPoint x="387" y="332" as="sourcePoint" />
            <mxPoint x="437" y="282" as="targetPoint" />
          </mxGeometry>
        </mxCell>
        <mxCell id="M044ovHINMiQ8--4kUMg-67" value="" style="endArrow=none;html=1;strokeColor=#000000;exitX=1;exitY=0.5;exitDx=0;exitDy=0;entryX=0;entryY=0.5;entryDx=0;entryDy=0;edgeStyle=orthogonalEdgeStyle;rounded=0;" parent="1" source="M044ovHINMiQ8--4kUMg-22" target="M044ovHINMiQ8--4kUMg-27" edge="1">
          <mxGeometry width="50" height="50" relative="1" as="geometry">
            <mxPoint x="387" y="332" as="sourcePoint" />
            <mxPoint x="437" y="282" as="targetPoint" />
          </mxGeometry>
        </mxCell>
        <mxCell id="M044ovHINMiQ8--4kUMg-68" value="" style="endArrow=none;html=1;strokeColor=#000000;exitX=1;exitY=0.5;exitDx=0;exitDy=0;entryX=0;entryY=0.5;entryDx=0;entryDy=0;edgeStyle=orthogonalEdgeStyle;rounded=0;" parent="1" source="M044ovHINMiQ8--4kUMg-23" target="M044ovHINMiQ8--4kUMg-28" edge="1">
          <mxGeometry width="50" height="50" relative="1" as="geometry">
            <mxPoint x="387" y="332" as="sourcePoint" />
            <mxPoint x="437" y="282" as="targetPoint" />
          </mxGeometry>
        </mxCell>
        <mxCell id="M044ovHINMiQ8--4kUMg-69" value="" style="endArrow=none;html=1;strokeColor=#000000;exitX=1;exitY=0.5;exitDx=0;exitDy=0;entryX=0;entryY=0.5;entryDx=0;entryDy=0;edgeStyle=orthogonalEdgeStyle;rounded=0;" parent="1" source="M044ovHINMiQ8--4kUMg-23" target="M044ovHINMiQ8--4kUMg-29" edge="1">
          <mxGeometry width="50" height="50" relative="1" as="geometry">
            <mxPoint x="387" y="332" as="sourcePoint" />
            <mxPoint x="437" y="282" as="targetPoint" />
          </mxGeometry>
        </mxCell>
        <mxCell id="h4G0MKLwNoanHZJyQ5zk-1" value="评&lt;br&gt;论&lt;br&gt;食&lt;br&gt;谱" style="rounded=0;whiteSpace=wrap;html=1;rotation=0;textDirection=ltr;direction=south;" vertex="1" parent="1">
          <mxGeometry x="381" y="312" width="40" height="80" as="geometry" />
        </mxCell>
        <mxCell id="h4G0MKLwNoanHZJyQ5zk-2" value="收&lt;br&gt;藏&lt;br&gt;食&lt;br&gt;谱" style="rounded=0;whiteSpace=wrap;html=1;rotation=0;textDirection=ltr;direction=south;" vertex="1" parent="1">
          <mxGeometry x="429" y="311" width="40" height="80" as="geometry" />
        </mxCell>
        <mxCell id="h4G0MKLwNoanHZJyQ5zk-3" value="" style="endArrow=none;html=1;strokeColor=#000000;exitX=1;exitY=0.5;exitDx=0;exitDy=0;edgeStyle=orthogonalEdgeStyle;rounded=0;" edge="1" parent="1" source="M044ovHINMiQ8--4kUMg-20" target="h4G0MKLwNoanHZJyQ5zk-1">
          <mxGeometry width="50" height="50" relative="1" as="geometry">
            <mxPoint x="341" y="495" as="sourcePoint" />
            <mxPoint x="390" y="537" as="targetPoint" />
          </mxGeometry>
        </mxCell>
        <mxCell id="h4G0MKLwNoanHZJyQ5zk-4" value="" style="endArrow=none;html=1;strokeColor=#000000;exitX=1;exitY=0.5;exitDx=0;exitDy=0;entryX=0;entryY=0.5;entryDx=0;entryDy=0;edgeStyle=orthogonalEdgeStyle;rounded=0;" edge="1" parent="1" source="M044ovHINMiQ8--4kUMg-20" target="h4G0MKLwNoanHZJyQ5zk-2">
          <mxGeometry width="50" height="50" relative="1" as="geometry">
            <mxPoint x="344" y="433" as="sourcePoint" />
            <mxPoint x="393" y="475" as="targetPoint" />
          </mxGeometry>
        </mxCell>
      </root>
    </mxGraphModel>
  </diagram>
</mxfile>
